<?xml version="1.0" encoding="UTF-8"?>
<svg version="1.1" xmlns="http://www.w3.org/2000/svg" width="234" height="214">
<path d="M0 0 C1.04027344 0.72058594 2.08054688 1.44117188 3.15234375 2.18359375 C21.26988347 15.18321445 31.17402758 32.8954734 37 54 C37.56267578 55.3303125 37.56267578 55.3303125 38.13671875 56.6875 C43.18121955 76.04377456 36.62475367 99.31503366 27.06445312 116.20605469 C24.37364612 120.74092852 21.31084638 124.90397266 18 129 C17.40960938 129.76570312 16.81921875 130.53140625 16.2109375 131.3203125 C2.76253222 147.74453512 -18.07379873 156.98320272 -38.75 159.75 C-40.16487234 159.85965929 -41.58208416 159.94165999 -43 160 C-43.89589844 160.03996094 -44.79179688 160.07992187 -45.71484375 160.12109375 C-70.82379592 160.68200333 -92.47755167 151.5423231 -110.66015625 134.5078125 C-118.9384672 125.87527905 -127.79220049 114.67028013 -131 103 C-131.35320312 101.77410156 -131.70640625 100.54820312 -132.0703125 99.28515625 C-138.43711592 74.72496991 -135.68243593 50.78992863 -123.06152344 28.75878906 C-120.34896433 24.26447541 -117.26414633 20.10329506 -114 16 C-113.21625 14.948125 -112.4325 13.89625 -111.625 12.8125 C-83.96033405 -16.82821352 -33.49734161 -23.2691457 0 0 Z " fill="#E6F1F7" transform="translate(167,41)"/>
<path d="M0 0 C7.34461221 5.63889626 13.05450453 11.58886335 17 20 C17.41121094 20.84433594 17.82242188 21.68867187 18.24609375 22.55859375 C22.98439108 34.11741596 23.0583464 48.90687711 18.625 60.5625 C17.79270742 62.39500384 16.92351778 64.21173376 16 66 C15.61585938 66.77214844 15.23171875 67.54429687 14.8359375 68.33984375 C14.56007813 68.88769531 14.28421875 69.43554688 14 70 C10.81057711 69.68160666 9.34572979 69.34780832 7.05078125 67.0390625 C6.47714844 66.24242187 5.90351563 65.44578125 5.3125 64.625 C4.73113281 63.83351563 4.14976562 63.04203125 3.55078125 62.2265625 C0.88207221 58.39491477 -0.24092974 56.61738465 -0.0546875 51.94921875 C-0.02713379 50.94705322 0.00041992 49.9448877 0.02880859 48.91235352 C0.06055176 47.84815186 0.09229492 46.7839502 0.125 45.6875 C0.30872285 32.39525047 -0.9417302 20.4783311 -10 10 C-15.30587561 4.6711054 -19.55214527 1.71755158 -27.25 1.5625 C-34.59737222 1.69414385 -38.4742931 3.61400643 -43.67578125 8.609375 C-47.38869705 12.62632609 -49.9169372 16.96361706 -52 22 C-52.30035156 22.680625 -52.60070312 23.36125 -52.91015625 24.0625 C-57.67928553 36.83933008 -56.06224728 52.60297958 -51 65 C-47.51623031 72.37916635 -43.12311062 78.39412712 -35.7421875 82.1484375 C-32.28876368 83.22086826 -29.29676273 83.19246285 -25.6875 83.125 C-24.43324219 83.10695313 -23.17898437 83.08890625 -21.88671875 83.0703125 C-20.93410156 83.04710937 -19.98148438 83.02390625 -19 83 C-23.06730617 74.08924331 -23.06730617 74.08924331 -30.25 67.6875 C-33.50304735 66.87423816 -36.66730531 66.615653 -40.01171875 66.44140625 C-42 66 -42 66 -44 63 C-43.92578125 60.953125 -43.92578125 60.953125 -43 59 C-35.42858933 54.39749145 -26.0275602 53.56441389 -17.5234375 55.58984375 C-8.12609638 59.09366338 -3.2728556 67.32752708 1.5 75.625 C4.79126437 81.34650794 8.11041191 86.62426049 14 90 C16.64142093 90.68536458 16.64142093 90.68536458 19 91 C14.87138695 95.52815624 10.22360887 98.81350514 5 102 C4.35160156 102.40863281 3.70320313 102.81726563 3.03515625 103.23828125 C0.25598501 104.2784701 -1.21427099 103.97390841 -4 103 C-5.94921875 101.2578125 -5.94921875 101.2578125 -7.6875 99.125 C-8.26886719 98.42632812 -8.85023438 97.72765625 -9.44921875 97.0078125 C-10.70006738 95.38832586 -11.86491488 93.70262769 -13 92 C-13.86625 92.165 -14.7325 92.33 -15.625 92.5 C-31.32672218 94.65700426 -44.17904434 92.36033999 -57 83 C-57.59683594 82.57589844 -58.19367188 82.15179688 -58.80859375 81.71484375 C-65.39375754 76.6690689 -69.75508388 69.51378354 -73 62 C-73.30035156 61.35933594 -73.60070312 60.71867187 -73.91015625 60.05859375 C-77.69032181 50.79279259 -77.35193986 38.62308774 -73.96484375 29.2890625 C-73.64644531 28.53367188 -73.32804687 27.77828125 -73 27 C-72.67128906 26.18273437 -72.34257813 25.36546875 -72.00390625 24.5234375 C-68.8883191 17.55918388 -64.3571964 12.36623046 -59 7 C-58.34902344 6.33742188 -57.69804688 5.67484375 -57.02734375 4.9921875 C-41.01820852 -10.19512354 -18.29371237 -11.72817756 0 0 Z " fill="#1902A9" transform="translate(146,69)"/>
<path d="M0 0 C7.72359992 4.49786113 13.39844351 11.91957558 16.6171875 20.16015625 C16.91625 20.92457031 17.2153125 21.68898438 17.5234375 22.4765625 C21.04185511 33.14583813 20.41806484 45.18061375 18.6171875 56.16015625 C18.2871875 55.50015625 17.9571875 54.84015625 17.6171875 54.16015625 C16.5653125 54.65515625 15.5134375 55.15015625 14.4296875 55.66015625 C11.29444187 56.9795983 9.05330523 57.67557391 5.6171875 57.16015625 C4.6065625 56.66515625 3.5959375 56.17015625 2.5546875 55.66015625 C-4.62118923 52.40688458 -12.44623413 53.55779991 -19.6328125 56.16015625 C-21.22415157 56.80748062 -22.81088528 57.46702299 -24.3828125 58.16015625 C-24.0528125 59.81015625 -23.7228125 61.46015625 -23.3828125 63.16015625 C-22.18785156 63.28970703 -22.18785156 63.28970703 -20.96875 63.421875 C-14.17737099 64.32243499 -9.99534684 64.98511772 -5.3828125 70.16015625 C-0.3828125 76.98682292 -0.3828125 76.98682292 -0.3828125 81.16015625 C-6.17660423 83.09142016 -12.91162865 83.19271666 -18.5703125 80.72265625 C-27.9226493 75.28793076 -33.11350521 65.86563435 -36.1328125 55.84765625 C-39.47045294 41.16203832 -38.68003214 25.47002283 -30.703125 12.41015625 C-23.0892278 2.12293514 -13.22643425 -4.66177601 0 0 Z M14.6171875 56.16015625 C17.6171875 57.16015625 17.6171875 57.16015625 17.6171875 57.16015625 Z " fill="#FAFAFC" transform="translate(127.3828125,70.83984375)"/>
<path d="M0 0 C7.34461221 5.63889626 13.05450453 11.58886335 17 20 C17.41121094 20.84433594 17.82242188 21.68867187 18.24609375 22.55859375 C22.98439108 34.11741596 23.0583464 48.90687711 18.625 60.5625 C17.79270742 62.39500384 16.92351778 64.21173376 16 66 C15.61585938 66.77214844 15.23171875 67.54429687 14.8359375 68.33984375 C14.56007813 68.88769531 14.28421875 69.43554688 14 70 C10.81057711 69.68160666 9.34572979 69.34780832 7.05078125 67.0390625 C6.47714844 66.24242187 5.90351563 65.44578125 5.3125 64.625 C4.73113281 63.83351563 4.14976562 63.04203125 3.55078125 62.2265625 C0.88207221 58.39491477 -0.24092974 56.61738465 -0.0546875 51.94921875 C-0.02713379 50.94705322 0.00041992 49.9448877 0.02880859 48.91235352 C0.06055176 47.84815186 0.09229492 46.7839502 0.125 45.6875 C0.30872285 32.39525047 -0.9417302 20.4783311 -10 10 C-15.30587561 4.6711054 -19.55214527 1.71755158 -27.25 1.5625 C-33.49872328 1.67445921 -37.38734942 2.77435185 -42 7 C-44.14565399 9.23332588 -46.12513279 11.5356859 -48 14 C-48.33 12.68 -48.66 11.36 -49 10 C-48.34 9.67 -47.68 9.34 -47 9 C-47 8.34 -47 7.68 -47 7 C-46.34 7 -45.68 7 -45 7 C-46.81294927 4.2805761 -48.66475218 2.25740623 -51 0 C-33.0067795 -8.65453381 -17.74704152 -11.37770453 0 0 Z M-45 0 C-45.33 0.99 -45.66 1.98 -46 3 C-44.68 2.34 -43.36 1.68 -42 1 C-42.99 0.67 -43.98 0.34 -45 0 Z " fill="#1A04A9" transform="translate(146,69)"/>
<path d="M0 0 C6.68519851 4.59921551 10.6141738 11.16347173 14.578125 18.0546875 C17.86938937 23.77619544 21.18853691 29.05394799 27.078125 32.4296875 C29.71954593 33.11505208 29.71954593 33.11505208 32.078125 33.4296875 C27.94951195 37.95784374 23.30173387 41.24319264 18.078125 44.4296875 C17.42972656 44.83832031 16.78132813 45.24695313 16.11328125 45.66796875 C13.36511566 46.6965528 11.84049738 46.34607259 9.078125 45.4296875 C2.99775145 40.87296728 -0.5082389 33.19264159 -4.21826172 26.73608398 C-10.02116349 15.84946389 -10.02116349 15.84946389 -19.921875 9.4296875 C-22.26502457 9.12672708 -24.57507537 8.99397454 -26.93359375 8.87109375 C-28.921875 8.4296875 -28.921875 8.4296875 -30.921875 5.4296875 C-30.84765625 3.3828125 -30.84765625 3.3828125 -29.921875 1.4296875 C-21.1492496 -3.90301537 -9.14640852 -4.77060876 0 0 Z " fill="#1802AA" transform="translate(132.921875,126.5703125)"/>
<path d="M0 0 C3.86596103 0.72942661 4.29212751 1.42600595 6.6875 4.375 C10.10314881 8.55379811 12.98354047 11.30753932 18.3125 12.625 C23.00087203 12.9284545 27.62247791 12.86213595 32.3125 12.625 C32.6425 11.965 32.9725 11.305 33.3125 10.625 C35.7875 15.575 35.7875 15.575 38.3125 20.625 C27.83673168 24.61576888 15.69811094 23.38610799 5.3125 19.625 C0.60279585 17.14584488 -2.32415338 14.40052272 -4.6875 9.625 C-5.125 5.8125 -5.125 5.8125 -4.6875 2.625 C-2.6875 0.625 -2.6875 0.625 0 0 Z " fill="#0994FB" transform="translate(94.6875,139.375)"/>
<path d="M0 0 C0.99 0 1.98 0 3 0 C3.33773437 1.08539063 3.67546875 2.17078125 4.0234375 3.2890625 C4.47392751 4.73438461 4.92445007 6.17969657 5.375 7.625 C5.59671875 8.33785156 5.8184375 9.05070312 6.046875 9.78515625 C6.37558594 10.83896484 6.37558594 10.83896484 6.7109375 11.9140625 C6.9270166 12.61998535 7.1430957 13.3259082 7.36572266 14.05322266 C8.02055855 16.15977087 8.02055855 16.15977087 9.171875 18.75 C14.39576466 39.25130282 6.91297633 62.25534324 -3 80 C-3.66 80.99 -4.32 81.98 -5 83 C-5.66 82.67 -6.32 82.34 -7 82 C-6.37351563 80.85402344 -5.74703125 79.70804687 -5.1015625 78.52734375 C-4.27568289 76.99758947 -3.45018211 75.46763063 -2.625 73.9375 C-2.2125 73.18533203 -1.8 72.43316406 -1.375 71.65820312 C2.13206366 65.12488292 4.30110244 59.34279285 4.0625 51.8125 C3.95234285 45.48213594 4.3647957 39.29532832 5 33 C4.34 33 3.68 33 3 33 C3 36.3 3 39.6 3 43 C2.34 43 1.68 43 1 43 C0.67 39.04 0.34 35.08 0 31 C-3.96 31.495 -3.96 31.495 -8 32 C-0.28571429 26 -0.28571429 26 4 26 C4 25.34 4 24.68 4 24 C4.66 24 5.32 24 6 24 C4.97965495 17.05896853 3.37329897 10.74886636 0.8046875 4.21484375 C0 2 0 2 0 0 Z " fill="#BCD9ED" transform="translate(196,79)"/>
<path d="M0 0 C0.33 0.66 0.66 1.32 1 2 C0.54625 2.495 0.0925 2.99 -0.375 3.5 C-2.50247806 6.77304317 -3.5226632 10.12561633 -4 14 C-3.67 14.99 -3.34 15.98 -3 17 C-3.48828125 19.77734375 -3.48828125 19.77734375 -4.3125 22.9375 C-4.57675781 23.97777344 -4.84101562 25.01804687 -5.11328125 26.08984375 C-6 29 -6 29 -7.23046875 31.12890625 C-7.61138672 32.05509766 -7.61138672 32.05509766 -8 33 C-7.36525925 34.34882408 -6.69349971 35.68042417 -6 37 C-5.875 39.953125 -5.875 39.953125 -6 43.25 C-6.08112171 47.26552461 -6.02196138 50.70783864 -4.875 54.5625 C-4 58 -4 58 -5.0625 60 C-6.23682204 61.9349426 -6.23682204 61.9349426 -5.47265625 63.83984375 C-4.90660783 65.24061796 -4.32839881 66.63653806 -3.73828125 68.02734375 C-2.84049884 70.42618034 -2.76199784 72.46131034 -3 75 C-3.99 75 -4.98 75 -6 75 C-6.45956424 72.94963646 -6.91476579 70.89825015 -7.35546875 68.84375 C-7.79231148 66.91634691 -8.27580341 64.99903542 -8.80078125 63.09375 C-14.05250432 42.58465136 -12.08356275 19.77628926 -2 1 C-1.34 0.67 -0.68 0.34 0 0 Z " fill="#B2CDDD" transform="translate(43,74)"/>
<path d="M0 0 C-4.33500278 2.46957371 -8.96634829 3.13917839 -13.80859375 4.12109375 C-17.02032823 5.00559835 -19.22495565 6.19299438 -22 8 C-22.69480469 8.34160156 -23.38960937 8.68320312 -24.10546875 9.03515625 C-31.72449427 12.79463788 -39.61796909 18.99770829 -43 27 C-44.11375 26.4740625 -44.11375 26.4740625 -45.25 25.9375 C-48.1322726 24.95490707 -49.21176345 24.9673198 -52 26 C-48.01807791 16.42644262 -35.08825771 10.23792699 -26 6 C-17.5194729 2.57591823 -9.18723565 -0.17667761 0 0 Z " fill="#B6D0E2" transform="translate(108,29)"/>
<path d="M0 0 C2.52349243 3.12432397 4.27256146 6.38060496 6 10 C-4.47576832 13.99076888 -16.61438906 12.76110799 -27 9 C-30.61407768 7.07522208 -32.5250884 5.8884033 -34 2 C-33.01 2.33 -32.02 2.66 -31 3 C-31 3.66 -31 4.32 -31 5 C-30.01 5 -29.02 5 -28 5 C-28 5.66 -28 6.32 -28 7 C-23.22907044 8.23402862 -18.57530554 8.11265112 -13.6875 8.0625 C-12.85154297 8.05798828 -12.01558594 8.05347656 -11.15429688 8.04882812 C-9.10283351 8.03710548 -7.05140727 8.01917203 -5 8 C-5 7.34 -5 6.68 -5 6 C-5.59167969 5.96261719 -6.18335937 5.92523438 -6.79296875 5.88671875 C-11.60667451 5.48623099 -15.00841777 4.9614965 -19 2 C-18.34 1.67 -17.68 1.34 -17 1 C-16.01 1.33 -15.02 1.66 -14 2 C-11.60509014 2.06970052 -9.20832309 2.08448003 -6.8125 2.0625 C-5.54019531 2.05347656 -4.26789063 2.04445312 -2.95703125 2.03515625 C-1.98121094 2.02355469 -1.00539062 2.01195312 0 2 C0 1.34 0 0.68 0 0 Z " fill="#1A8BED" transform="translate(127,150)"/>
<path d="M0 0 C0.99 0.33 1.98 0.66 3 1 C5.11685412 10.46657165 3.84064658 19.5831206 2 29 C1.34 29 0.68 29 0 29 C0.33 22.4 0.66 15.8 1 9 C0.34 9 -0.32 9 -1 9 C-1 12.3 -1 15.6 -1 19 C-1.66 19 -2.32 19 -3 19 C-3.33 15.04 -3.66 11.08 -4 7 C-6.64 7.33 -9.28 7.66 -12 8 C-4.28571429 2 -4.28571429 2 0 2 C0 1.34 0 0.68 0 0 Z " fill="#C6E6F6" transform="translate(200,103)"/>
<path d="M0 0 C1.80030122 2.70045182 2.93377066 5.06677881 4.125 8.0625 C4.47820312 8.94035156 4.83140625 9.81820312 5.1953125 10.72265625 C6 13 6 13 6 15 C4.02 15.66 2.04 16.32 0 17 C-0.45732667 22.71658336 0.47726246 25.48649253 4 30 C-4.24336038 27.50201201 -9.27993069 20.81211468 -14 14 C-13.34 13.67 -12.68 13.34 -12 13 C-11.01 13.33 -10.02 13.66 -9 14 C-8.67 13.34 -8.34 12.68 -8 12 C-7.34 12.33 -6.68 12.66 -6 13 C-6.33 13.99 -6.66 14.98 -7 16 C-6.33333333 18.16666667 -6.33333333 18.16666667 -5 20 C-4.01 20.33 -3.02 20.66 -2 21 C-1.80508548 19.54263913 -1.61930642 18.08405407 -1.4375 16.625 C-1.33308594 15.81289062 -1.22867188 15.00078125 -1.12109375 14.1640625 C-0.81762672 11.95100814 -0.81762672 11.95100814 -2 10 C-1.34 10 -0.68 10 0 10 C-0.08378906 9.36191406 -0.16757813 8.72382813 -0.25390625 8.06640625 C-0.35574219 7.24011719 -0.45757812 6.41382813 -0.5625 5.5625 C-0.66691406 4.73878906 -0.77132812 3.91507813 -0.87890625 3.06640625 C-0.91886719 2.38449219 -0.95882812 1.70257813 -1 1 C-0.67 0.67 -0.34 0.34 0 0 Z " fill="#1D0B9E" transform="translate(91,125)"/>
<path d="M0 0 C0.70125 0.721875 1.4025 1.44375 2.125 2.1875 C8.07049949 8.37650777 8.07049949 8.37650777 16 11 C12.60966233 14.5897693 9.211816 17.41547655 5 20 C4.67 20 4.34 20 4 20 C4 17.36 4 14.72 4 12 C3.01 12 2.02 12 1 12 C1 10.35 1 8.7 1 7 C1.66 7 2.32 7 3 7 C2.505 6.21625 2.01 5.4325 1.5 4.625 C0 2 0 2 0 0 Z " fill="#200CA1" transform="translate(149,149)"/>
<path d="M0 0 C14.00887757 0.26843358 31.38487597 2.92615071 42.9375 11.3125 C42.9375 12.3025 42.9375 13.2925 42.9375 14.3125 C38.92759223 12.76027764 35.02701146 11.00872277 31.12109375 9.21484375 C29.06956262 8.36707328 27.10192017 7.78857428 24.9375 7.3125 C24.9375 6.6525 24.9375 5.9925 24.9375 5.3125 C14.27922223 3.8526561 3.6816271 2.85542132 -7.0625 2.3125 C-4.50630705 -0.24369295 -3.5550866 0.01467023 0 0 Z " fill="#C3E1EE" transform="translate(119.0625,26.6875)"/>
<path d="M0 0 C3.87477272 0.7451486 4.33673992 1.55591183 6.625 4.625 C7.5191392 5.94557482 8.40042658 7.27532308 9.25 8.625 C7.6 8.295 5.95 7.965 4.25 7.625 C3.92 8.615 3.59 9.605 3.25 10.625 C2.26 10.625 1.27 10.625 0.25 10.625 C0.25 11.285 0.25 11.945 0.25 12.625 C-0.74 12.625 -1.73 12.625 -2.75 12.625 C-5.19897847 8.95153229 -5.06537716 6.96143601 -4.75 2.625 C-2.75 0.625 -2.75 0.625 0 0 Z " fill="#178CF3" transform="translate(94.75,139.375)"/>
<path d="M0 0 C0.99 0.33 1.98 0.66 3 1 C2.43410156 1.47050781 1.86820313 1.94101563 1.28515625 2.42578125 C0.18494141 3.35970703 0.18494141 3.35970703 -0.9375 4.3125 C-2.03384766 5.23482422 -2.03384766 5.23482422 -3.15234375 6.17578125 C-5.23820366 7.95975519 -5.23820366 7.95975519 -6 11 C-2.00861962 13.81347301 0.90373156 14.39255167 5.75 14.5625 C9.234375 14.69140625 9.234375 14.69140625 12 15 C12.33 15.66 12.66 16.32 13 17 C10.45716766 17.10871967 7.91904912 17.18762401 5.375 17.25 C4.66214844 17.28351563 3.94929688 17.31703125 3.21484375 17.3515625 C-1.93718097 17.44609506 -5.02439155 16.58682655 -9 13 C-9 8.11900564 -7.23958554 6.31363321 -4 3 C-1.875 1.0625 -1.875 1.0625 0 0 Z " fill="#D4E2ED" transform="translate(21,133)"/>
<path d="M0 0 C0.99 0.33 1.98 0.66 3 1 C3 1.66 3 2.32 3 3 C3.99 3 4.98 3 6 3 C6 3.66 6 4.32 6 5 C10.74204986 6.15895312 15.45796831 6.29599633 20.3125 6.5 C26.26208675 6.75357355 32.09883374 7.18510938 38 8 C38 8.33 38 8.66 38 9 C27.02512298 11.54370981 14.29544635 10.88539352 4.2421875 5.53125 C1.82420772 3.87994674 1.02523824 2.70290082 0 0 Z " fill="#278BE5" transform="translate(93,152)"/>
<path d="M0 0 C9.99562363 -0.63019694 9.99562363 -0.63019694 14.1875 2 C15.0846875 2.99 15.0846875 2.99 16 4 C15.14732649 9.41210824 11.1794556 11.86191377 7 15 C4.10457632 16.87972743 1.21356112 18.71990926 -2 20 C-2.66 19.67 -3.32 19.34 -4 19 C-3.00097656 18.33613281 -2.00195312 17.67226562 -0.97265625 16.98828125 C0.33125305 16.09712021 1.63460999 15.20515059 2.9375 14.3125 C3.59685547 13.87744141 4.25621094 13.44238281 4.93554688 12.99414062 C8.87506797 10.33522835 8.87506797 10.33522835 10.94140625 6.16796875 C10.96074219 5.45253906 10.98007813 4.73710938 11 4 C7.46588679 1.87953208 4.05606165 1.46800711 0 1 C0 0.67 0 0.34 0 0 Z " fill="#D3E9ED" transform="translate(216,80)"/>
<path d="M0 0 C0 0.66 0 1.32 0 2 C-0.78375 2.763125 -1.5675 3.52625 -2.375 4.3125 C-4.90052521 6.89815676 -5.93407386 8.60841682 -7 12 C-7.7425 11.649375 -8.485 11.29875 -9.25 10.9375 C-12.1322726 9.95490707 -13.21176345 9.9673198 -16 11 C-14.53922744 7.46914867 -12.67528238 5.60005404 -9.6875 3.25 C-8.92824219 2.63640625 -8.16898438 2.0228125 -7.38671875 1.390625 C-4.6715978 -0.191344 -3.08901036 -0.2842983 0 0 Z " fill="#B4CCDF" transform="translate(72,44)"/>
<path d="M0 0 C5.05227321 4.42978682 6.70459135 11.05696938 7.19238281 17.56787109 C7.75327225 33.74018325 7.75327225 33.74018325 6 39 C5.01 38.67 4.02 38.34 3 38 C3.48726562 36.98099609 3.48726562 36.98099609 3.984375 35.94140625 C5.18594017 32.46148865 5.26572663 29.61360014 5.25 25.9375 C5.25515625 24.72964844 5.2603125 23.52179688 5.265625 22.27734375 C5.00883426 19.10899912 4.44655623 17.72195504 3 15 C2.5859375 12.203125 2.5859375 12.203125 2.375 9.25 C2.30023438 8.26515625 2.22546875 7.2803125 2.1484375 6.265625 C2.09945312 5.51796875 2.05046875 4.7703125 2 4 C1.34 4 0.68 4 0 4 C0 2.68 0 1.36 0 0 Z " fill="#2C1A9A" transform="translate(160,86)"/>
<path d="M0 0 C0.99 0 1.98 0 3 0 C3.33773437 1.08539063 3.67546875 2.17078125 4.0234375 3.2890625 C4.47392751 4.73438461 4.92445007 6.17969657 5.375 7.625 C5.59671875 8.33785156 5.8184375 9.05070312 6.046875 9.78515625 C6.26601562 10.48769531 6.48515625 11.19023438 6.7109375 11.9140625 C6.92733887 12.60967285 7.14374023 13.3052832 7.36669922 14.02197266 C7.92834562 15.77619746 8.53885235 17.51461201 9.15625 19.25 C10.31013283 23.0108033 10.13490834 26.08765824 10 30 C7.68991791 27.20498764 6.5030586 24.97043364 5.68359375 21.4453125 C5.47669922 20.58292969 5.26980469 19.72054687 5.05664062 18.83203125 C4.85232422 17.93871094 4.64800781 17.04539062 4.4375 16.125 C2.52398017 7.97727741 2.52398017 7.97727741 0 0 Z " fill="#B8D6E7" transform="translate(196,79)"/>
<path d="M0 0 C0.99 0.33 1.98 0.66 3 1 C6.61283318 11.45820131 5.79183238 24.19166709 4 35 C2 33 2 33 1.8046875 30.71264648 C1.82789063 29.77493408 1.85109375 28.83722168 1.875 27.87109375 C1.89046875 26.83533203 1.9059375 25.79957031 1.921875 24.73242188 C1.97331036 22.56313558 2.02537716 20.39386415 2.078125 18.22460938 C2.17346109 11.78545109 1.67259233 6.2264863 0 0 Z " fill="#241197" transform="translate(144,93)"/>
<path d="M0 0 C-1.15173355 2.46800047 -2.04783565 4.04783565 -4 6 C-4.99 5.34 -5.98 4.68 -7 4 C-9.64106542 3.68269144 -9.64106542 3.68269144 -12.5 3.75 C-13.4590625 3.74484375 -14.418125 3.7396875 -15.40625 3.734375 C-18.23622897 3.82017391 -18.23622897 3.82017391 -21 6 C-23.0625 5.625 -23.0625 5.625 -25 5 C-25.66 5 -26.32 5 -27 5 C-27 3.68 -27 2.36 -27 1 C-26.42032471 1.00523682 -25.84064941 1.01047363 -25.2434082 1.01586914 C-22.5997833 1.03674334 -19.95617579 1.04969327 -17.3125 1.0625 C-15.94448242 1.07506836 -15.94448242 1.07506836 -14.54882812 1.08789062 C-13.21948242 1.09272461 -13.21948242 1.09272461 -11.86328125 1.09765625 C-11.05157471 1.10289307 -10.23986816 1.10812988 -9.40356445 1.11352539 C-6.20658434 0.96252531 -3.18815157 0 0 0 Z " fill="#EBFBFB" transform="translate(133,160)"/>
<path d="M0 0 C0.66 0 1.32 0 2 0 C3.10865172 3.32595517 3.03170342 5.69378175 2.9375 9.1875 C2.88307237 13.25596554 2.99802665 16.73020007 4.1875 20.625 C4.455625 21.73875 4.72375 22.8525 5 24 C3.55078125 25.7109375 3.55078125 25.7109375 2 27 C-0.641513 18.08489362 -0.17875809 9.20604186 0 0 Z " fill="#C0DDEC" transform="translate(34,108)"/>
<path d="M0 0 C0.66 0.66 1.32 1.32 2 2 C4.88717605 2.6837613 4.88717605 2.6837613 8.125 3.125 C9.22070312 3.29257813 10.31640625 3.46015625 11.4453125 3.6328125 C12.28835937 3.75398437 13.13140625 3.87515625 14 4 C10.30727073 6.46181952 8.36166671 6 4 6 C1.16621868 6.8974827 1.16621868 6.8974827 -1 8 C-1 8.99 -1 9.98 -1 11 C-0.34 11 0.32 11 1 11 C0.67 11.99 0.34 12.98 0 14 C-1.65 12.02 -3.3 10.04 -5 8 C-3.35 5.36 -1.7 2.72 0 0 Z " fill="#D9DCF9" transform="translate(102,132)"/>
<path d="M0 0 C0.33 0.66 0.66 1.32 1 2 C0.3503125 2.7115625 0.3503125 2.7115625 -0.3125 3.4375 C-4.70862 10.11308963 -5.91945234 18.6024325 -7.55444336 26.32299805 C-7.97548859 28.2297834 -8.48105216 30.11750097 -9 32 C-9.99 32.495 -9.99 32.495 -11 33 C-10.14181414 22.48722322 -7.50379502 10.11132453 -2 1 C-1.34 0.67 -0.68 0.34 0 0 Z " fill="#B1C9D9" transform="translate(43,74)"/>
<path d="M0 0 C0 0.66 0 1.32 0 2 C-1.65 2 -3.3 2 -5 2 C-5.33 3.98 -5.66 5.96 -6 8 C-4.68 8.33 -3.36 8.66 -2 9 C-2 9.33 -2 9.66 -2 10 C-3.27875 10.061875 -4.5575 10.12375 -5.875 10.1875 C-6.59429687 10.22230469 -7.31359375 10.25710937 -8.0546875 10.29296875 C-8.69664063 10.19628906 -9.33859375 10.09960938 -10 10 C-12 7 -12 7 -12.0625 5 C-9.7101351 0.57201902 -4.59290561 0 0 0 Z " fill="#1E069D" transform="translate(114,125)"/>
<path d="M0 0 C1.98 0.66 3.96 1.32 6 2 C6 2.99 6 3.98 6 5 C6.33 4.34 6.66 3.68 7 3 C8.32 3.33 9.64 3.66 11 4 C11 4.66 11 5.32 11 6 C10.01 6.495 10.01 6.495 9 7 C9 7.66 9 8.32 9 9 C10.98 9.66 12.96 10.32 15 11 C15 10.34 15 9.68 15 9 C16.32 9.33 17.64 9.66 19 10 C14.72833042 13.05119255 14.72833042 13.05119255 11.5546875 12.828125 C8.48387331 11.83269288 7.35319745 10.65926613 5.3125 8.1875 C4.44044922 7.15689453 4.44044922 7.15689453 3.55078125 6.10546875 C2.09805313 4.13312503 1.01442104 2.22373085 0 0 Z " fill="#2B18A7" transform="translate(133,160)"/>
<path d="M0 0 C0.66 0.33 1.32 0.66 2 1 C2 2.65 2 4.3 2 6 C1.21625 6.103125 0.4325 6.20625 -0.375 6.3125 C-3.33045181 6.77595022 -3.33045181 6.77595022 -5 10 C-5.99 10 -6.98 10 -8 10 C-8.268125 10.969375 -8.53625 11.93875 -8.8125 12.9375 C-9.204375 13.948125 -9.59625 14.95875 -10 16 C-10.99 16.33 -11.98 16.66 -13 17 C-11.05672098 10.09056348 -5.04378761 4.8420361 0 0 Z " fill="#1802A2" transform="translate(90,73)"/>
<path d="M0 0 C-0.375 1.9375 -0.375 1.9375 -1 4 C-1.99 4.495 -1.99 4.495 -3 5 C-3.33 5.99 -3.66 6.98 -4 8 C-5.32 7.67 -6.64 7.34 -8 7 C-8 4.69 -8 2.38 -8 0 C-4.71023192 -1.09658936 -3.28696233 -0.79953138 0 0 Z " fill="#0991FB" transform="translate(98,142)"/>
<path d="M0 0 C0.99 0.33 1.98 0.66 3 1 C1.68 3.64 0.36 6.28 -1 9 C-3.375 8.75 -3.375 8.75 -6 8 C-7.3125 5.9375 -7.3125 5.9375 -8 4 C-7.38125 3.87625 -6.7625 3.7525 -6.125 3.625 C-3.80879168 3.12802644 -3.80879168 3.12802644 -2 1 C-2 1.66 -2 2.32 -2 3 C-1.34 3 -0.68 3 0 3 C0 2.01 0 1.02 0 0 Z " fill="#210D9D" transform="translate(161,130)"/>
<path d="M0 0 C0.99 0 1.98 0 3 0 C2.0122936 6.42590164 0.86390108 12.14202052 -2 18 C-2.33 18 -2.66 18 -3 18 C-2.41509121 11.85845775 -1.45933748 5.99320151 0 0 Z " fill="#BED9EA" transform="translate(37,89)"/>
<path d="M0 0 C-4.33500278 2.46957371 -8.96634829 3.13917839 -13.80859375 4.12109375 C-17.00369092 5.00101647 -19.23080234 6.21878367 -22 8 C-22.99 8.33 -23.98 8.66 -25 9 C-25 8.34 -25 7.68 -25 7 C-24.34 7 -23.68 7 -23 7 C-23 6.34 -23 5.68 -23 5 C-20.48283718 4.15389485 -17.96220727 3.32303233 -15.4375 2.5 C-14.73302734 2.26152344 -14.02855469 2.02304687 -13.30273438 1.77734375 C-8.67877023 0.28574241 -4.85697889 -0.25529455 0 0 Z " fill="#BEDAE7" transform="translate(108,29)"/>
<path d="M0 0 C3.85025879 0.60355408 6.86101159 1.76772603 10.3125 3.5625 C11.19550781 4.01753906 12.07851562 4.47257812 12.98828125 4.94140625 C13.65214844 5.29074219 14.31601563 5.64007813 15 6 C15 6.99 15 7.98 15 9 C11.32305352 7.62859834 8.04681411 5.96304199 4.6875 3.9375 C3.80449219 3.41027344 2.92148438 2.88304687 2.01171875 2.33984375 C1.34785156 1.89769531 0.68398437 1.45554688 0 1 C0 0.67 0 0.34 0 0 Z " fill="#BBD7E8" transform="translate(147,32)"/>
<path d="M0 0 C0.97591583 3.38317487 0.85856655 5.5657338 0 9 C-0.99 9.33 -1.98 9.66 -3 10 C-3 12.31 -3 14.62 -3 17 C-3.99 17.33 -4.98 17.66 -6 18 C-4.83805848 11.53287812 -2.8751252 5.90377651 0 0 Z " fill="#271498" transform="translate(76,90)"/>
<path d="M0 0 C0.66 0.66 1.32 1.32 2 2 C1.38511719 2.68835938 1.38511719 2.68835938 0.7578125 3.390625 C-0.05042969 4.31101562 -0.05042969 4.31101562 -0.875 5.25 C-1.40867187 5.85328125 -1.94234375 6.4565625 -2.4921875 7.078125 C-3.9797487 8.97418746 -5.00322436 10.81290005 -6 13 C-6.66 13 -7.32 13 -8 13 C-7.48118887 8.8275894 -6.28848726 6.74583179 -3.4375 3.6875 C-2.79683594 2.99011719 -2.15617187 2.29273437 -1.49609375 1.57421875 C-1.00238281 1.05472656 -0.50867187 0.53523438 0 0 Z " fill="#D2DEE8" transform="translate(61,64)"/>
<path d="M0 0 C2.45823172 3.68734758 3.01242616 6.69699971 4 11 C2.35 11.33 0.7 11.66 -1 12 C-1.33 11.34 -1.66 10.68 -2 10 C-1.34 10 -0.68 10 0 10 C-0.08378906 9.36191406 -0.16757813 8.72382813 -0.25390625 8.06640625 C-0.35574219 7.24011719 -0.45757812 6.41382813 -0.5625 5.5625 C-0.66691406 4.73878906 -0.77132812 3.91507813 -0.87890625 3.06640625 C-0.91886719 2.38449219 -0.95882812 1.70257813 -1 1 C-0.67 0.67 -0.34 0.34 0 0 Z " fill="#2614A1" transform="translate(91,125)"/>
<path d="M0 0 C0.33 1.32 0.66 2.64 1 4 C-0.98 4.66 -2.96 5.32 -5 6 C-5.33 8.31 -5.66 10.62 -6 13 C-6.33 13 -6.66 13 -7 13 C-7.125 5.375 -7.125 5.375 -6 2 C-3.85412616 0.684787 -2.52986895 0 0 0 Z " fill="#131FAD" transform="translate(96,136)"/>
<path d="M0 0 C0.33 0 0.66 0 1 0 C1.02696009 2.7708983 1.04681952 5.5415345 1.0625 8.3125 C1.07087891 9.09818359 1.07925781 9.88386719 1.08789062 10.69335938 C1.09111328 11.45068359 1.09433594 12.20800781 1.09765625 12.98828125 C1.10289307 13.68477783 1.10812988 14.38127441 1.11352539 15.09887695 C1 17 1 17 0 20 C-0.99 19.67 -1.98 19.34 -3 19 C-2.68289062 18.32582031 -2.36578125 17.65164062 -2.0390625 16.95703125 C-0.81297609 13.46775527 -0.58180931 10.37559942 -0.375 6.6875 C-0.30023438 5.43324219 -0.22546875 4.17898437 -0.1484375 2.88671875 C-0.09945312 1.93410156 -0.05046875 0.98148437 0 0 Z " fill="#231290" transform="translate(166,105)"/>
<path d="M0 0 C-1.43715947 3.64757321 -3.07711644 4.97325575 -6.5 6.8125 C-7.2940625 7.25207031 -8.088125 7.69164063 -8.90625 8.14453125 C-9.5971875 8.42683594 -10.288125 8.70914063 -11 9 C-11.66 8.67 -12.32 8.34 -13 8 C-11.2126038 6.66094733 -9.41995047 5.32890934 -7.625 4 C-6.62726563 3.2575 -5.62953125 2.515 -4.6015625 1.75 C-2 0 -2 0 0 0 Z " fill="#C9DDE8" transform="translate(225,91)"/>
<path d="M0 0 C7.38873239 0.6056338 7.38873239 0.6056338 9.9375 2.25 C11.27648437 4.45538602 11.65660684 6.45889061 12 9 C9 8 9 8 7.125 5.5625 C4.85319667 2.82297246 3.34957646 2.0234817 0 1 C0 0.67 0 0.34 0 0 Z " fill="#28159A" transform="translate(113,135)"/>
<path d="M0 0 C4.8 3.44615385 4.8 3.44615385 5.8125 6.25 C5.874375 6.8275 5.93625 7.405 6 8 C3.0625 7.25 3.0625 7.25 0 6 C-0.9375 4 -0.9375 4 -1 2 C-0.67 1.34 -0.34 0.68 0 0 Z " fill="#F8F9FA" transform="translate(138,168)"/>
<path d="M0 0 C6.57142857 5.14285714 6.57142857 5.14285714 8 9 C6.68 8.67 5.36 8.34 4 8 C3.67 6.68 3.34 5.36 3 4 C1.68 4.33 0.36 4.66 -1 5 C-0.67 3.35 -0.34 1.7 0 0 Z " fill="#27179D" transform="translate(134,128)"/>
<path d="M0 0 C0.66 0.33 1.32 0.66 2 1 C0.92492371 2.29854721 -0.16043736 3.58858361 -1.25 4.875 C-1.85328125 5.59429687 -2.4565625 6.31359375 -3.078125 7.0546875 C-4.97087634 8.97052118 -6.53657727 9.96449045 -9 11 C-8.60167969 10.54109375 -8.20335937 10.0821875 -7.79296875 9.609375 C-5.08857938 6.47728415 -2.42008229 3.36122541 0 0 Z " fill="#CDE9F9" transform="translate(176,167)"/>
<path d="M0 0 C0 0.66 0 1.32 0 2 C-1.65 2 -3.3 2 -5 2 C-5.33 2.99 -5.66 3.98 -6 5 C-7.98 5 -9.96 5 -12 5 C-8.55392327 1.00980589 -5.20909181 0 0 0 Z " fill="#220F96" transform="translate(114,125)"/>
<path d="M0 0 C0.99 0.33 1.98 0.66 3 1 C3.6875 3.0625 3.6875 3.0625 4 5 C2.68 5.99 1.36 6.98 0 8 C-1.125 6.25 -1.125 6.25 -2 4 C-1.125 1.75 -1.125 1.75 0 0 Z " fill="#F6FBFB" transform="translate(156,168)"/>
<path d="M0 0 C2.6875 -0.3125 2.6875 -0.3125 5 0 C4.34 1.98 3.68 3.96 3 6 C0.03 5.505 0.03 5.505 -3 5 C-1.8125 2.5 -1.8125 2.5 0 0 Z " fill="#F9FAFB" transform="translate(164,161)"/>
<path d="M0 0 C0.66 0.33 1.32 0.66 2 1 C2.625 3.5625 2.625 3.5625 3 6 C2.34 5.34 1.68 4.68 1 4 C-0.9931567 3.97624074 -0.9931567 3.97624074 -3.125 4.375 C-5.043125 4.684375 -5.043125 4.684375 -7 5 C-4.702779 3.25728062 -2.40133271 1.60088848 0 0 Z " fill="#D2E5F3" transform="translate(195,106)"/>
<path d="M0 0 C3.78383679 0.92493788 5.56693694 1.39371171 7.875 4.625 C8.431875 5.800625 8.431875 5.800625 9 7 C4.58110387 5.64978174 2.65654657 3.73884332 0 0 Z " fill="#14149C" transform="translate(86,148)"/>
<path d="M0 0 C0.66 0 1.32 0 2 0 C2.66 0.99 3.32 1.98 4 3 C4.99 3.33 5.98 3.66 7 4 C6.67 4.99 6.34 5.98 6 7 C4.125 6.875 4.125 6.875 2 6 C0.75 2.9375 0.75 2.9375 0 0 Z " fill="#2315A6" transform="translate(82,142)"/>
<path d="M0 0 C0.33 0.66 0.66 1.32 1 2 C-0.25 5.0625 -0.25 5.0625 -2 8 C-2.99 8.33 -3.98 8.66 -5 9 C-3.7508258 5.54074837 -2.32472205 2.85306797 0 0 Z " fill="#251295" transform="translate(82,81)"/>
<path d="M0 0 C-1.44253657 3.36591866 -3.33264727 5.51047079 -6 8 C-6 6.35 -6 4.7 -6 3 C-5.34 3 -4.68 3 -4 3 C-4 2.34 -4 1.68 -4 1 C-2 0 -2 0 0 0 Z " fill="#2C189E" transform="translate(103,75)"/>
<path d="M0 0 C1.32 0.33 2.64 0.66 4 1 C-0.43076923 4.07692308 -0.43076923 4.07692308 -3.3125 3.6875 C-4.1478125 3.3471875 -4.1478125 3.3471875 -5 3 C-4.67 2.34 -4.34 1.68 -4 1 C-2.02 1.495 -2.02 1.495 0 2 C0 1.34 0 0.68 0 0 Z " fill="#221292" transform="translate(148,169)"/>
<path d="M0 0 C1.98 0.66 3.96 1.32 6 2 C6 3.65 6 5.3 6 7 C1.125 2.25 1.125 2.25 0 0 Z " fill="#210D9B" transform="translate(133,160)"/>
<path d="M0 0 C0 3 0 3 -2 5.1875 C-2.66 5.785625 -3.32 6.38375 -4 7 C-4.66 6.67 -5.32 6.34 -6 6 C-4 4 -2 2 0 0 Z " fill="#D3EBF7" transform="translate(185,156)"/>
<path d="M0 0 C4.42857143 5.14285714 4.42857143 5.14285714 5 9 C3.68 8.34 2.36 7.68 1 7 C1 5.68 1 4.36 1 3 C0.34 2.67 -0.32 2.34 -1 2 C-0.67 1.34 -0.34 0.68 0 0 Z " fill="#2A1798" transform="translate(142,137)"/>
<path d="M0 0 C1.98 1.65 3.96 3.3 6 5 C5.67 5.66 5.34 6.32 5 7 C4.01 7 3.02 7 2 7 C1.34 4.69 0.68 2.38 0 0 Z " fill="#2A179C" transform="translate(149,72)"/>
<path d="M0 0 C0.33 0.66 0.66 1.32 1 2 C3.01669827 3.13350534 3.01669827 3.13350534 5 4 C3.02 4.99 1.04 5.98 -1 7 C-1.04254356 5.00045254 -1.04080783 2.99958364 -1 1 C-0.67 0.67 -0.34 0.34 0 0 Z " fill="#210BB0" transform="translate(92,71)"/>
<path d="M0 0 C1.485 0.99 1.485 0.99 3 2 C3 2.99 3 3.98 3 5 C3.66 5 4.32 5 5 5 C4.67 5.99 4.34 6.98 4 8 C2.35 6.02 0.7 4.04 -1 2 C-0.67 1.34 -0.34 0.68 0 0 Z " fill="#D4F2FE" transform="translate(98,138)"/>
<path d="M0 0 C0.99 0.33 1.98 0.66 3 1 C3 3.64 3 6.28 3 9 C0.90250005 6.64031256 0.03094296 5.45383006 -0.1875 2.25 C-0.125625 1.5075 -0.06375 0.765 0 0 Z " fill="#ADD1E5" transform="translate(203,100)"/>
<path d="M0 0 C2.52588702 2.36292656 3.88820837 3.66462511 5 7 C3.68 6.67 2.36 6.34 1 6 C1 5.01 1 4.02 1 3 C0.34 2.67 -0.32 2.34 -1 2 C-0.67 1.34 -0.34 0.68 0 0 Z " fill="#2D1B9E" transform="translate(155,78)"/>
<path d="M0 0 C0.66 0.33 1.32 0.66 2 1 C1.3125 2.9375 1.3125 2.9375 0 5 C-2.625 5.75 -2.625 5.75 -5 6 C-3.35 4.02 -1.7 2.04 0 0 Z " fill="#1A0595" transform="translate(90,73)"/>
<path d="M0 0 C2 1 2 1 2 1 Z " fill="#C5CEEE" transform="translate(210,100)"/>
<path d="" fill="#D5EAEA" transform="translate(0,0)"/>
</svg>
